<mxfile host="app.diagrams.net" modified="2023-12-26T17:38:48.340Z" agent="Mozilla/5.0 (Windows NT 10.0; Win64; x64) AppleWebKit/537.36 (KHTML, like Gecko) Chrome/120.0.0.0 Safari/537.36" version="22.1.11" etag="FuliYEz6468-96AGV8QN" type="github">
  <diagram name="Page-1" id="UAIVev2n52D0i6DsRqeR">
    <mxGraphModel>
      <root>
        <mxCell id="0" />
        <mxCell id="1" parent="0" />
      </root>
    </mxGraphModel>
  </diagram>
</mxfile>
